<svg id="visual" viewBox="0 0 900 300" width="900" height="300" xmlns="http://www.w3.org/2000/svg" xmlns:xlink="http://www.w3.org/1999/xlink" version="1.1"><path d="M0 219L21.5 217.3C43 215.7 86 212.3 128.8 212.3C171.7 212.3 214.3 215.7 257.2 212.7C300 209.7 343 200.3 385.8 197C428.7 193.7 471.3 196.3 514.2 198.7C557 201 600 203 642.8 199.2C685.7 195.3 728.3 185.7 771.2 188.5C814 191.3 857 206.7 878.5 214.3L900 222L900 301L878.5 301C857 301 814 301 771.2 301C728.3 301 685.7 301 642.8 301C600 301 557 301 514.2 301C471.3 301 428.7 301 385.8 301C343 301 300 301 257.2 301C214.3 301 171.7 301 128.8 301C86 301 43 301 21.5 301L0 301Z" fill="#4d948c"></path><path d="M0 208L21.5 206.3C43 204.7 86 201.3 128.8 200.7C171.7 200 214.3 202 257.2 208.3C300 214.7 343 225.3 385.8 228.8C428.7 232.3 471.3 228.7 514.2 226.5C557 224.3 600 223.7 642.8 225.3C685.7 227 728.3 231 771.2 230.2C814 229.3 857 223.7 878.5 220.8L900 218L900 301L878.5 301C857 301 814 301 771.2 301C728.3 301 685.7 301 642.8 301C600 301 557 301 514.2 301C471.3 301 428.7 301 385.8 301C343 301 300 301 257.2 301C214.3 301 171.7 301 128.8 301C86 301 43 301 21.5 301L0 301Z" fill="#67a5a0"></path><path d="M0 218L21.5 222.3C43 226.7 86 235.3 128.8 236C171.7 236.7 214.3 229.3 257.2 226.7C300 224 343 226 385.8 225.3C428.7 224.7 471.3 221.3 514.2 222.5C557 223.7 600 229.3 642.8 230.5C685.7 231.7 728.3 228.3 771.2 228.3C814 228.3 857 231.7 878.5 233.3L900 235L900 301L878.5 301C857 301 814 301 771.2 301C728.3 301 685.7 301 642.8 301C600 301 557 301 514.2 301C471.3 301 428.7 301 385.8 301C343 301 300 301 257.2 301C214.3 301 171.7 301 128.8 301C86 301 43 301 21.5 301L0 301Z" fill="#81b6b4"></path><path d="M0 251L21.5 251C43 251 86 251 128.8 254.2C171.7 257.3 214.3 263.7 257.2 266.8C300 270 343 270 385.8 267.2C428.7 264.3 471.3 258.7 514.2 254.5C557 250.3 600 247.7 642.8 249.5C685.7 251.3 728.3 257.7 771.2 259.3C814 261 857 258 878.5 256.5L900 255L900 301L878.5 301C857 301 814 301 771.2 301C728.3 301 685.7 301 642.8 301C600 301 557 301 514.2 301C471.3 301 428.7 301 385.8 301C343 301 300 301 257.2 301C214.3 301 171.7 301 128.8 301C86 301 43 301 21.5 301L0 301Z" fill="#9bc7c7"></path><path d="M0 277L21.5 278C43 279 86 281 128.8 279.8C171.7 278.7 214.3 274.3 257.2 271.8C300 269.3 343 268.7 385.8 269.8C428.7 271 471.3 274 514.2 274.3C557 274.7 600 272.3 642.8 270.7C685.7 269 728.3 268 771.2 269C814 270 857 273 878.5 274.5L900 276L900 301L878.5 301C857 301 814 301 771.2 301C728.3 301 685.7 301 642.8 301C600 301 557 301 514.2 301C471.3 301 428.7 301 385.8 301C343 301 300 301 257.2 301C214.3 301 171.7 301 128.8 301C86 301 43 301 21.5 301L0 301Z" fill="#b6d8da"></path></svg>