<svg id="visual" viewBox="0 0 900 300" width="900" height="100" xmlns="http://www.w3.org/2000/svg" xmlns:xlink="http://www.w3.org/1999/xlink" version="1.1"><path d="M0 79L21.5 80.7C43 82.3 86 85.7 128.8 85.7C171.7 85.7 214.3 82.3 257.2 85.3C300 88.3 343 97.7 385.8 101C428.7 104.3 471.3 101.7 514.2 99.3C557 97 600 95 642.8 98.8C685.7 102.7 728.3 112.3 771.2 109.5C814 106.7 857 91.3 878.5 83.7L900 76L900 0L878.5 0C857 0 814 0 771.2 0C728.3 0 685.7 0 642.8 0C600 0 557 0 514.2 0C471.3 0 428.7 0 385.8 0C343 0 300 0 257.2 0C214.3 0 171.7 0 128.8 0C86 0 43 0 21.5 0L0 0Z" fill="#4d948c"></path><path d="M0 90L21.5 91.7C43 93.3 86 96.7 128.8 97.3C171.7 98 214.3 96 257.2 89.7C300 83.3 343 72.7 385.8 69.2C428.7 65.7 471.3 69.3 514.2 71.5C557 73.7 600 74.3 642.8 72.7C685.7 71 728.3 67 771.2 67.8C814 68.7 857 74.3 878.5 77.2L900 80L900 0L878.5 0C857 0 814 0 771.2 0C728.3 0 685.7 0 642.8 0C600 0 557 0 514.2 0C471.3 0 428.7 0 385.8 0C343 0 300 0 257.2 0C214.3 0 171.7 0 128.8 0C86 0 43 0 21.5 0L0 0Z" fill="#67a5a0"></path><path d="M0 80L21.5 75.7C43 71.3 86 62.7 128.8 62C171.7 61.3 214.3 68.7 257.2 71.3C300 74 343 72 385.8 72.7C428.7 73.3 471.3 76.7 514.2 75.5C557 74.3 600 68.7 642.8 67.5C685.7 66.3 728.3 69.7 771.2 69.7C814 69.7 857 66.3 878.5 64.7L900 63L900 0L878.5 0C857 0 814 0 771.2 0C728.3 0 685.7 0 642.8 0C600 0 557 0 514.2 0C471.3 0 428.7 0 385.8 0C343 0 300 0 257.2 0C214.3 0 171.7 0 128.8 0C86 0 43 0 21.5 0L0 0Z" fill="#81b6b4"></path><path d="M0 47L21.5 47C43 47 86 47 128.8 43.8C171.7 40.7 214.3 34.3 257.2 31.2C300 28 343 28 385.8 30.8C428.7 33.7 471.3 39.3 514.2 43.5C557 47.7 600 50.3 642.8 48.5C685.7 46.7 728.3 40.3 771.2 38.7C814 37 857 40 878.5 41.5L900 43L900 0L878.5 0C857 0 814 0 771.2 0C728.3 0 685.7 0 642.8 0C600 0 557 0 514.2 0C471.3 0 428.7 0 385.8 0C343 0 300 0 257.2 0C214.3 0 171.7 0 128.8 0C86 0 43 0 21.5 0L0 0Z" fill="#9bc7c7"></path><path d="M0 21L21.5 20C43 19 86 17 128.8 18.2C171.7 19.3 214.3 23.7 257.2 26.2C300 28.7 343 29.3 385.8 28.2C428.7 27 471.3 24 514.2 23.7C557 23.3 600 25.7 642.8 27.3C685.7 29 728.3 30 771.2 29C814 28 857 25 878.5 23.5L900 22L900 0L878.5 0C857 0 814 0 771.2 0C728.3 0 685.7 0 642.8 0C600 0 557 0 514.2 0C471.3 0 428.7 0 385.8 0C343 0 300 0 257.2 0C214.3 0 171.7 0 128.8 0C86 0 43 0 21.5 0L0 0Z" fill="#b6d8da"></path></svg>